<?xml version="1.0" encoding="utf-8"?>
<!-- Generator: Adobe Illustrator 24.1.2, SVG Export Plug-In . SVG Version: 6.00 Build 0)  -->
<svg version="1.1" id="图层_1" xmlns="http://www.w3.org/2000/svg" xmlns:xlink="http://www.w3.org/1999/xlink" x="0px" y="0px"
	 viewBox="0 0 512 512" style="enable-background:new 0 0 512 512;" xml:space="preserve">
<style type="text/css">
	.st0{display:none;}
	.st1{display:inline;fill:none;}
</style>
<g>
	<g id="canvasGrid" class="st0">
		<rect class="st1" width="512" height="512"/>
	</g>
</g>
<g>
	<path d="M457.3,384.8c-6.2,9-18.1,11.9-28.9,13.4c-43.6,5.7-82.3,8.7-123.1,9.9c-16.3,0.4-32.6,0.6-48.9,0.6c-0.2,0-0.4,0-0.5,0
		c-0.2,0-33.1-0.1-49.4-0.6c-40.8-1.2-79.6-4.2-123.2-9.9c-10.8-1.5-22.6-4.3-28.9-13.4c-3.9-5.7-5.5-14.1-5.6-17.2L1,367.5
		c0,8.9,2.2,24.6,7.9,35.8c3.9,7.5,10.5,15,17.9,19.5c27.4,16.9,171.1,22.9,196.7,23.3c9.9,0.1,32.2,0.2,32.4,0.2h0.5
		c11.4,0,21.9,0,31.8-0.2c25.5-0.4,169.3-6.4,196.7-23.3c7.4-4.6,14-12.1,17.9-19.5c5.7-11.3,7.9-26.9,7.9-35.8l-47.9,0.1
		C462.7,370.7,461.2,379.1,457.3,384.8z"/>
	<path d="M4.6,352h39.6c2.2,0,4-1.6,4-3.6l0-129.1c0-2-1.8-3.6-4-3.6l-39.6,0c-2.2,0-4,1.6-4,3.6l0,129.1C0.6,350.4,2.4,352,4.6,352
		z"/>
	<path d="M508,156.7h-39.6c-2.2,0-4,1.6-4,3.6v188c0,2,1.8,3.6,4,3.6H508c2.2,0,4-1.6,4-3.6l0-188C512,158.3,510.2,156.7,508,156.7z
		"/>
	<path d="M4.6,200.2h39.6c2.2,0,4-1.6,4-3.6v-36.2c0-2-1.8-3.6-4-3.6H4.6c-2.2,0-4,1.6-4,3.6v36.2C0.6,198.5,2.4,200.2,4.6,200.2z"
		/>
	<path d="M54.5,124.4c6.2-9,18.1-11.9,28.9-13.4c43.6-5.8,82.3-8.8,123.2-9.9c16.3-0.4,49.2-0.6,49.4-0.6c0.2,0,0.3,0,0.5,0
		c16.3,0,32.6,0.2,48.9,0.6c40.8,1.1,79.6,4.1,123.1,9.9c10.8,1.4,22.6,4.3,28.9,13.4c3.9,5.6,5.5,14.1,5.6,17.2l47.9,0.1
		c0-8.9-2.2-24.6-7.9-35.9c-3.9-7.5-10.5-15-17.9-19.5C457.5,69.5,313.7,63.4,288.2,63c-10-0.1-20.4-0.2-31.8-0.2h-0.5
		c-0.2,0-22.4,0-32.4,0.2C198,63.4,54.2,69.5,26.8,86.3c-7.4,4.6-14.1,12.1-17.9,19.5C3.2,117.1,1,132.8,1,141.7l47.9-0.1
		C49,138.6,50.6,130.1,54.5,124.4z"/>
	<path d="M439.3,156.8L439.3,156.8l-40.7,0c-1.6,0-3,0.9-3.6,2.2c0,0.1-0.1,0.2-0.1,0.2c0,0-20.9,59.4-22.8,69.6
		c-2-10.2-22.8-69.6-22.8-69.6c0-0.1,0-0.1-0.1-0.2h0c-0.6-1.3-2-2.2-3.6-2.2h-40.7l0,0c-2,0.2-3.6,1.7-3.6,3.6
		c0,0.4,0.1,0.8,0.3,1.2l0,0l46.9,118.6v68.1c0,2,1.8,3.6,4,3.6h39.5c2.2,0,4-1.6,4-3.6c0-0.1,0-0.1,0-0.1v-68l46.9-118.6l0,0
		c0.2-0.4,0.3-0.8,0.3-1.2C442.9,158.4,441.3,156.9,439.3,156.8z"/>
	<path d="M238.3,156.7c-2.2,0-4,1.6-4,3.6v188c0,2,1.8,3.6,4,3.6h39.6c2.2,0,4-1.6,4-3.6v-188c0-2-1.8-3.6-4-3.6L238.3,156.7z"/>
	<path d="M204.8,353.3L204.8,353.3l-17.2,0c-4.5,0-7-0.6-7.3-1.9c7.2-2.4,13-6,17.6-10.6c4.3-4.4,6.4-10.1,6.4-17l0-139
		c0-6.7-1.9-12.2-5.6-16.4c-3.7-4.4-8.7-7.9-14.8-10.3c-13.2-4.6-27.6-6.8-43.5-6.7c-7.3,0-14.6,0.5-22,1.4
		c-7.4,1.2-14.1,2.9-20.1,5.3c-6.1,2.4-11.1,5.9-14.8,10.3c-4.4,4.2-6.5,9.7-6.5,16.4v139.1c0.3,12.5,7.5,21.2,21.6,25.9
		c6.1,2.5,12.9,4.2,20.5,5.3c7.4,1.4,14.8,2,22.2,2c5.6,0,10.9-0.4,15.9-1.2c0.3,5.4,2.2,9.9,5.7,13.5c3.4,3.7,10.6,5.6,21.6,5.8
		h20.4c2.2,0,4-1.6,4-3.7v-14.5C208.8,354.9,207,353.3,204.8,353.3z M156.6,321.1c0,3.2-0.7,6.9-3.2,9.3c-3.1,3-8.4,3.2-12.6,3
		c-5.3,0.2-9.2-0.7-11.7-2.6c-3-1.6-4.5-4.9-4.5-9.8V187.2c0-4.8,1.5-8.1,4.5-9.9c2.6-1.5,6.5-2.3,11.7-2.3c3.8,0,8.5,0.2,11.8,2.1
		c3.6,2.1,3.9,6.6,4,10.1C156.6,187.2,156.6,320.8,156.6,321.1z"/>
</g>
</svg>
