<svg version="1.1" xmlns="http://www.w3.org/2000/svg" xmlns:xlink="http://www.w3.org/1999/xlink"><path d="M6.4 6.4h499.2v499.2h-499.2z" style="fill:none;stroke:#FFFFFF;stroke-width:12.80px;fill-rule:evenodd;"/><path d="M64 64l384 0c28.29 0 51.2 22.91 51.2 51.2l0 51.2 0 0-486.4 0 0-51.2c0-28.29 22.91-51.2 51.2-51.2z M64 512l384 0c28.29 0 51.2-22.91 51.2-51.2l0-256 0 0-486.4 0 0 256c0 28.29 22.91 51.2 51.2 51.2z M102.4 32a32 32 0 0 1 32-32h0a32 32 0 0 1 32 32v64a32 32 0 0 1-32 32h0a32 32 0 0 1-32-32z M345.6 32a32 32 0 0 1 32-32h0a32 32 0 0 1 32 32v64a32 32 0 0 1-32 32h0a32 32 0 0 1-32-32z" style="fill:currentcolor;fill:currentcolor;stroke:none;stroke-width:12.80px;fill-rule:evenodd;"/><path d="M153.6 300.8l204.8 0 M153.6 403.2l128 0" style="fill:none;stroke:#FFFFFF;stroke-width:38.40px;stroke-linecap:round;fill-rule:evenodd;"/></svg>