<svg version="1.1" xmlns="http://www.w3.org/2000/svg" xmlns:xlink="http://www.w3.org/1999/xlink">
  <symbol id="jiankang" viewBox="0 0 512 512" xmlns="http://www.w3.org/2000/svg">
    <path d="M348.06 0c69.4 0 124.99 61.26 124.99 136.67 0.35 26.2-6.73 51.7-20.54 74.01l-3.54 6.02h-55.59 0.36-46.74l-54.53-89.23-1.42-2.13c-8.85-10.98-26.2-9.56-32.93 2.84l-1.06 2.48-50.28 133.48-56.65-43.55-2.12-1.41c-8.5-4.96-19.47-2.83-25.5 4.95s-5.31 19.12 1.77 25.85l1.77 1.77 77.9 59.84 2.12 1.42c9.56 5.67 22.31 2.12 27.27-7.79l1.06-2.13 45.32-120.74 39.31 64.09 1.41 2.12c3.19 3.89 7.79 6.37 12.75 7.09h2.48 163.23c7.08 2.12 12.04 8.14 12.75 15.22v2.13c0 0.35 0 0.71 0 1.41 0 0.35 0 0.71 0 1.06 0 10.98-8.85 19.83-19.83 19.83h-116.14l-127.82 132.43c-0.71 0.71-1.42 1.42-2.13 2.12-6.02 4.6-14.52 4.6-20.18-0.35l-1.42-1.42-185.89-192.26c-25.14-27.26-38.95-62.32-38.95-98.79 0-75.42 55.59-136.67 124.99-136.68 49.57 1.42 93.48 31.16 111.54 75.42 19.12-44.61 63.03-74.36 112.24-75.77z" style="fill-rule:evenodd;clip-rule:evenodd;fill:currentcolor;stroke:currentcolor;" />
  </symbol>
  <symbol id="shuimian" viewBox="0 0 512 512" xmlns="http://www.w3.org/2000/svg">
    <path d="M502.41 288.02c-6.9-4.22-15.72-3.45-21.86 1.54-73.25 57.53-178.34 51.39-244.68-14.19-65.97-65.58-73.25-170.28-16.11-244.3l0.38-0.39c4.6-6.52 4.99-14.96 0.38-21.48l-0.38-0.38c-4.22-6.52-12.27-9.59-19.94-8.05l-0.39 0c-126.18 29.53-211.32 148.04-198.66 277.28 12.66 129.25 118.89 229.35 248.52 233.95 3.07 0 5.75 0 8.82 0 121.58 0 226.66-84.76 252.74-203.27l0-0.38c1.53-7.67-1.92-15.72-8.82-19.94l0-0.39z" style="fill-rule:evenodd;clip-rule:evenodd;fill:currentcolor;stroke:currentcolor;" />
    <path d="M319.86 42.57l148.8 0-148.8 128.1 148.8 0" style="fill:none;stroke:currentcolor;stroke-width:42.24862921348315;stroke-linecap:round;stroke-linejoin:round;" />
  </symbol>
  <symbol id="xueya" viewBox="0 0 512 512" xmlns="http://www.w3.org/2000/svg">
    <path d="M256.19 0c7.29 0 14.57 3.45 18.79 9.59 46.41 65.58 162.61 237.78 162.62 318.7 0 101.25-81.31 183.32-181.41 183.33s-181.41-82.07-181.4-183.33c0-81.31 116.21-253.51 162.61-318.7 3.84-6.14 11.12-9.59 18.79-9.59z m31.83 426.47c-11.89 0-21.48 9.59-21.47 21.48s9.59 21.48 21.47 21.48 21.48-9.59 21.48-21.48-9.97-21.48-21.48-21.48z m-149.57-127.71h-0.77c-11.89 0.38-21.09 10.36-20.71 21.86 1.92 57.14 31.83 104.7 87.83 141.91 9.97 6.52 23.01 3.84 29.53-6.14s3.84-23.01-6.14-29.53c-45.26-29.53-67.5-65.2-68.65-107.39-0.38-11.89-10.36-21.09-21.86-20.71h0.77z" style="fill-rule:evenodd;clip-rule:evenodd;fill:currentcolor;stroke:currentcolor;" />
  </symbol>
  <symbol id="xueyang" viewBox="0 0 512 512" xmlns="http://www.w3.org/2000/svg">
    <path d="M20.6 256.38a233.49 233.49 0 1 0 466.98 0 233.49 233.49 0 1 0-466.98 0z" style="fill:none;stroke:currentcolor;stroke-width:42.02825633383011;" />
    <path d="M253.71 259.82c60.66 37.39 90.8 36.63 165.96 33.19-16.79 76.3-84.7 133.15-165.96 133.15-88.89 0-162.15-68.67-169.39-155.66l-0.39 0.38c38.53-24.04 102.63-52.65 169.78-11.06z" style="fill-rule:evenodd;clip-rule:evenodd;fill:currentcolor;stroke:currentcolor;" />
  </symbol>
</svg>